# xmcd
#
# Track frame offsets: 
#        182
#        13417
#        24605
#        35580
#        47127
#        58585
#        71370
#        84842
#        96422
#        108135
#        129540
#        141707
#        153272
#        164447
#        176865
#        189492
#        200870
#        213845
#        226597
#        240165
#
# Disc length: 3331 seconds
#
# Revision: 0
# Processed by: cddbd v1.5.1PL0 Copyright (c) Steve Scherf et al.
# Submitted via: ExactAudioCopy v0.95b2
#
DISCID=150d0114
DTITLE=Lowell Fulson - Sinner's Prayer
DYEAR=1900
DGENRE=Blues
TTITLE0=Sinner's Prayer
TTITLE1=Low Society
TTITLE2=Why Can't You Cry For Me
TTITLE3=Day Is Slowly Passing On
TTITLE4=Miss Kathy Lee
TTITLE5=Mean Woman Blues
TTITLE6=Black Widow Spider Blues
TTITLE7=You're Going To Miss Me When I'm Gone
TTITLE8=I Love My Baby
TTITLE9=Mama Bring Your Clothes Back Home
TTITLE10=Good Times Back Home
TTITLE11=My Baby Can't Be Found
TTITLE12=Upstairs
TTITLE13=Want To See My Baby
TTITLE14=Day Is Passing On
TTITLE15=Back Home Blues
TTITLE16=Trying To Find My Baby
TTITLE17=Fulson's Guitar Boogie
TTITLE18=Fulson's Blues
TTITLE19=Sinner's Prayer (Alternate Take)
EXTD=
EXTT0=
EXTT1=
EXTT2=
EXTT3=
EXTT4=
EXTT5=
EXTT6=
EXTT7=
EXTT8=
EXTT9=
EXTT10=
EXTT11=
EXTT12=
EXTT13=
EXTT14=
EXTT15=
EXTT16=
EXTT17=
EXTT18=
EXTT19=
PLAYORDER=
